<svg xmlns="http://www.w3.org/2000/svg" width="40" height="40" viewBox="0 0 40 40"><defs><style>.a{fill:none;}.b{fill:#00aa4e;fill-rule:evenodd;}</style></defs><rect class="a" width="40" height="40" transform="translate(0)"/><path class="b" d="M14.411,10.159c-.388-.929-.682-.964-1.269-.988-.2-.012-.423-.023-.67-.023a2.9,2.9,0,0,0-2.046.717A6.387,6.387,0,0,0,8.38,14.733c0,2.869,2.092,5.644,2.374,6.032s4.079,6.361,9.956,8.795c4.6,1.9,5.96,1.728,7.006,1.505,1.528-.329,3.444-1.458,3.926-2.822a4.966,4.966,0,0,0,.341-2.775c-.141-.247-.529-.387-1.117-.682s-3.444-1.7-3.985-1.893a1.116,1.116,0,0,0-1.434.435A24.541,24.541,0,0,1,23.885,25.4a1.264,1.264,0,0,1-1.411.223,14.737,14.737,0,0,1-4.69-2.892A17.785,17.785,0,0,1,14.54,18.7c-.341-.588-.035-.929.235-1.246.294-.365.576-.623.87-.964a3.5,3.5,0,0,0,.647-.917,1.194,1.194,0,0,0-.082-1.082C16.068,14.192,14.893,11.323,14.411,10.159ZM19.994,0A19.986,19.986,0,0,0,3.808,31.722L1.316,39.153,9,36.7a20,20,0,1,0,11-36.7h-.012Z"/></svg>